<svg xmlns="http://www.w3.org/2000/svg" viewBox="0 0 512 512" fill="#a5a5a5">
    <path d="M500.115 65.06c-9.594-7.812-22.54-9.452-33.782-4.281L16.384 267.785c-11 5.06-17.381 16.12-16.257 28.175 1.124 12.056 9.439 21.746 21.186 24.686l89.639 22.434 52.792 96.482c4.172 7.626 11.484 12.82 20.059 14.25a28.52 28.52 0 0 0 4.689.39c6.955 0 13.659-2.573 18.906-7.362l51.206-46.735c.315-.287.616-.584.903-.889l140.569 44.31a28.222 28.222 0 0 0 22.426-2.409 28.216 28.216 0 0 0 13.451-18.099l75.204-325.745c2.785-12.059-1.447-24.401-11.042-32.213zM125.803 313.152L41.644 292.09l305.369-140.488-216.474 163.579a16.298 16.298 0 0 0-4.736-2.029zm63.824 105.718l-41.618-76.062c.398-.25.79-.518 1.173-.807l241.821-182.733-186.954 197.885a16.317 16.317 0 0 0 6.956 26.772l12.569 3.962-33.947 30.983zm215.621-7.939l-159.582-50.303 226.558-239.807-66.976 290.11z"/>
</svg>
