<svg xmlns="http://www.w3.org/2000/svg" viewBox="0 0 215.4 215.4" fill="#fff">
    <path d="M68.6 11c-4.1 0-7.5 3.4-7.5 7.5v32L12.8 2.2C11.3.7 9.4 0 7.5 0S3.7.7 2.2 2.2c-2.9 2.9-2.9 7.7 0 10.6l48.3 48.3h-32c-4.1 0-7.5 3.4-7.5 7.5s3.4 7.5 7.5 7.5h50.1c4.1 0 7.5-3.4 7.5-7.5V18.5c0-4.1-3.3-7.5-7.5-7.5zM145.3 202.8c4.1 0 7.5-3.4 7.5-7.5v-32l49.8 49.8c2.9 2.9 7.7 2.9 10.6 0s2.9-7.7 0-10.6l-49.8-49.8h32c4.1 0 7.5-3.4 7.5-7.5s-3.4-7.5-7.5-7.5h-50.1c-4.1 0-7.5 3.4-7.5 7.5v50.1c0 4.2 3.3 7.5 7.5 7.5zM12.8 213.2l49.8-49.8v32c0 4.1 3.4 7.5 7.5 7.5s7.5-3.4 7.5-7.5v-50.1c0-4.1-3.4-7.5-7.5-7.5H20c-4.1 0-7.5 3.4-7.5 7.5s3.4 7.5 7.5 7.5h32L2.2 202.5c-2.9 2.9-2.9 7.7 0 10.6 2.9 3 7.7 3 10.6.1zM146.7 76.1h50.1c4.1 0 7.5-3.4 7.5-7.5s-3.4-7.5-7.5-7.5h-32l48.3-48.3c2.9-2.9 2.9-7.7 0-10.6-1.5-1.5-3.4-2.2-5.3-2.2s-3.8.7-5.3 2.2l-48.3 48.3v-32c0-4.1-3.4-7.5-7.5-7.5s-7.5 3.4-7.5 7.5v50.1c0 4.1 3.4 7.5 7.5 7.5z"/>
</svg>
